<svg xmlns="http://www.w3.org/2000/svg" width="4096" height="3105" viewBox="0 0 4096 3105" role="img" aria-labelledby="title desc">
  <title id="title">Riding a camel in Wadi Rum</title>
  <desc id="desc">A sharp vector desert scene with two riders on camels in Wadi Rum.</desc>
  <defs>
    <linearGradient id="sky" x1="0" x2="0" y1="0" y2="1"><stop stop-color="#dcecfb"/><stop offset=".75" stop-color="#f9f4df"/></linearGradient>
    <linearGradient id="sand" x1="0" x2="1"><stop stop-color="#dcc085"/><stop offset=".5" stop-color="#c79d5d"/><stop offset="1" stop-color="#e2c987"/></linearGradient>
    <filter id="shadow" x="-20%" y="-20%" width="140%" height="140%"><feDropShadow dx="12" dy="18" stdDeviation="16" flood-color="#3b2a16" flood-opacity=".28"/></filter>
    <style>
      .camel{fill:#7e5a35;stroke:#2f2418;stroke-width:14;stroke-linecap:round;stroke-linejoin:round}
      .skin{fill:#f0bf98}.line{stroke:#26313b;stroke-width:14;stroke-linecap:round;stroke-linejoin:round}
    </style>
  </defs>
  <rect width="4096" height="3105" fill="#fff"/>
  <rect x="80" y="0" width="3936" height="2280" fill="url(#sky)"/>
  <path d="M80 1700c520-310 940-330 1460-120 620-280 1140-245 2476 120v580H80z" fill="url(#sand)"/>
  <path d="M80 1910c750-120 1430-86 2050 102 690 208 1250 155 1886-44v312H80z" fill="#b99059" opacity=".45"/>
  <g transform="translate(200 1030)" filter="url(#shadow)">
    <path class="camel" d="M0 1050c230-440 440-620 845-570 240 28 460 152 670 144 260-10 410-188 650-322 120-67 280 35 240 172-62 210-220 310-420 370l-86 724h-130l-48-610c-420 120-812 110-1180-30l-170 640H235l42-692c-180 38-300 110-277 174z"/>
    <path class="camel" d="M2220 330c156-172 282-230 430-165 156 68 192 260 68 380-118 112-295 76-390-24"/>
    <circle cx="2640" cy="278" r="24" fill="#111"/>
    <path d="M500 1540c120 90 260 92 420 0M1710 1568c120 78 250 75 390 0" class="line" fill="none"/>
  </g>
  <g transform="translate(1380 640)" filter="url(#shadow)">
    <circle class="skin" cx="250" cy="120" r="95"/><path d="M150 102c38-120 220-140 296-26-108-32-205-24-296 26z" fill="#4b3327"/>
    <rect x="100" y="235" width="300" height="460" rx="120" fill="#b93b37"/>
    <path d="M130 410c-95 148-130 280-108 448M370 410c88 144 120 282 98 448" class="line" fill="none"/>
    <rect x="130" y="685" width="90" height="390" rx="36" fill="#5a83ac"/><rect x="275" y="685" width="90" height="390" rx="36" fill="#5a83ac"/>
  </g>
  <g transform="translate(2650 260)" filter="url(#shadow)">
    <circle class="skin" cx="310" cy="145" r="115"/><path d="M184 122c48-145 270-166 370-35-135-42-252-32-370 35z" fill="#e9cf98"/>
    <rect x="125" y="292" width="370" height="610" rx="145" fill="#e79caa"/>
    <rect x="160" y="820" width="120" height="560" rx="42" fill="#547aa8"/><rect x="335" y="820" width="120" height="560" rx="42" fill="#547aa8"/>
    <path d="M132 500c-160 270-180 545-62 850M492 500c130 260 145 520 55 820" class="line" fill="none"/>
  </g>
</svg>
