<svg xmlns="http://www.w3.org/2000/svg" width="4096" height="2304" viewBox="0 0 4096 2304" role="img" aria-labelledby="title desc">
  <title id="title">Flight conversation scene A</title><desc id="desc">Passenger with suitcase at the aircraft aisle, asking a flight attendant for help.</desc>
  <defs><linearGradient id="cabin" x1="0" y1="0" x2="1" y2="1"><stop stop-color="#eef7fb"/><stop offset="1" stop-color="#cbdce8"/></linearGradient><filter id="s"><feDropShadow dx="0" dy="18" stdDeviation="18" flood-opacity=".25"/></filter><style>.t{font-family:Arial,Helvetica,sans-serif;font-weight:900}.skin{fill:#f0bd8d}.line{stroke:#2d3740;stroke-width:22;stroke-linecap:round;stroke-linejoin:round;fill:none}</style></defs>
  <rect width="4096" height="2304" fill="url(#cabin)"/><path d="M0 440h4096M0 1820h4096" stroke="#b8cbd8" stroke-width="20"/><g opacity=".75"><rect x="265" y="210" width="520" height="360" rx="58" fill="#fff" stroke="#95b2c4" stroke-width="18"/><rect x="1000" y="210" width="520" height="360" rx="58" fill="#fff" stroke="#95b2c4" stroke-width="18"/><rect x="1735" y="210" width="520" height="360" rx="58" fill="#fff" stroke="#95b2c4" stroke-width="18"/><rect x="2470" y="210" width="520" height="360" rx="58" fill="#fff" stroke="#95b2c4" stroke-width="18"/><rect x="3205" y="210" width="520" height="360" rx="58" fill="#fff" stroke="#95b2c4" stroke-width="18"/></g>
  <g filter="url(#s)"><rect x="510" y="1020" width="820" height="760" rx="95" fill="#314766"/><rect x="625" y="1155" width="590" height="500" rx="54" fill="#446285"/><rect x="2700" y="980" width="760" height="820" rx="95" fill="#2f5d8c"/><rect x="2815" y="1115" width="530" height="560" rx="54" fill="#4c80b2"/></g>
  <g transform="translate(1410 740)" filter="url(#s)"><circle cx="265" cy="170" r="140" class="skin"/><path d="M130 120c120-150 310-112 390 16-95-20-186-18-286 20-50 19-83 9-104-36z" fill="#6b3b25"/><rect x="95" y="340" width="360" height="610" rx="120" fill="#d7197a"/><path d="M138 462c-178 80-246 212-290 382M423 462c200 60 275 205 334 380" class="line"/><rect x="-95" y="905" width="470" height="520" rx="52" fill="#30415a"/><circle cx="2" cy="1460" r="46" fill="#1e293b"/><circle cx="295" cy="1460" r="46" fill="#1e293b"/></g>
  <g transform="translate(2240 650)" filter="url(#s)"><circle cx="255" cy="150" r="125" class="skin"/><path d="M145 100c90-112 268-105 345 15-112-20-200-8-310 40z" fill="#1f2937"/><rect x="95" y="320" width="340" height="690" rx="110" fill="#0e9aaa"/><path d="M90 430c-140 70-225 175-255 335M430 430c145 65 235 168 275 335" class="line"/><path d="M165 352h205l-50 115h-105z" fill="#fff"/></g>
  <rect x="1345" y="170" width="1405" height="155" rx="34" fill="#fff" opacity=".92"/><text class="t" x="1425" y="280" font-size="96" fill="#263238">Excuse me. Is this seat free?</text>
</svg>
