<svg xmlns="http://www.w3.org/2000/svg" width="4096" height="1718" viewBox="0 0 4096 1718" role="img" aria-labelledby="title desc">
  <title id="title">Photos A to F from Dominic's move to the USA</title>
  <desc id="desc">A sharp vector collage with children's books and a toy helicopter, a plane, online flight booking, a pub goodbye party, packed suitcases, and a house in North Carolina.</desc>
  <defs>
    <linearGradient id="sky" x1="0" x2="0" y1="0" y2="1"><stop stop-color="#b9ddf7"/><stop offset="1" stop-color="#f8fbff"/></linearGradient>
    <linearGradient id="mount" x1="0" x2="1"><stop stop-color="#385f7b"/><stop offset=".55" stop-color="#89a85b"/><stop offset="1" stop-color="#d19d42"/></linearGradient>
    <linearGradient id="runway" x1="0" x2="0" y1="0" y2="1"><stop stop-color="#f6d6a7"/><stop offset="1" stop-color="#976f52"/></linearGradient>
    <linearGradient id="pub" x1="0" x2="1"><stop stop-color="#27343f"/><stop offset=".5" stop-color="#bd9d77"/><stop offset="1" stop-color="#202832"/></linearGradient>
    <filter id="shadow" x="-20%" y="-20%" width="140%" height="140%"><feDropShadow dx="18" dy="22" stdDeviation="18" flood-color="#12202b" flood-opacity=".28"/></filter>
    <style>
      .paper{fill:#fff;stroke:#e6e9ee;stroke-width:10}
      .label{fill:#fff;stroke:#dde2e8;stroke-width:10}
      .letter{font-family:Arial,Helvetica,sans-serif;font-size:76px;font-weight:800;fill:#2b2b2b}
      .caption{font-family:Arial,Helvetica,sans-serif;font-size:54px;font-weight:800;fill:#2f343a}
      .small{font-family:Arial,Helvetica,sans-serif;font-size:31px;font-weight:700;fill:#fff}
      .sign{font-family:Arial,Helvetica,sans-serif;font-size:43px;font-weight:800;fill:#fff}
      .ink{stroke:#202a33;stroke-width:18;stroke-linecap:round;stroke-linejoin:round}
    </style>
  </defs>
  <rect width="4096" height="1718" fill="#fff"/>

  <g transform="translate(28 48)" filter="url(#shadow)">
    <rect class="paper" x="0" y="0" width="1018" height="640" rx="18"/>
    <g transform="rotate(-12 176 240)">
      <rect x="38" y="28" width="330" height="500" rx="16" fill="#f8df4c"/>
      <path d="M48 384c120-50 190-22 309-87l0 206H48z" fill="#f69c3c"/>
      <text x="78" y="126" font-family="Arial,Helvetica,sans-serif" font-size="56" font-weight="900" fill="#17202a">Mr Dunn's</text>
      <text x="78" y="184" font-family="Arial,Helvetica,sans-serif" font-size="35" font-weight="900" fill="#17202a">Chocolate Factory</text>
      <circle cx="260" cy="290" r="68" fill="#8753ad"/>
      <path d="M200 428c72-35 126-34 185-6" fill="none" stroke="#263238" stroke-width="15" stroke-linecap="round"/>
    </g>
    <g transform="translate(348 120) rotate(2)">
      <rect x="0" y="0" width="360" height="445" rx="16" fill="#62c8dc"/>
      <path d="M0 302c97-85 197-36 360-112v255H0z" fill="#f0503f"/>
      <circle cx="180" cy="208" r="80" fill="#a1d572"/>
      <circle cx="150" cy="190" r="18" fill="#101820"/><circle cx="210" cy="190" r="18" fill="#101820"/>
      <text x="74" y="351" font-family="Arial,Helvetica,sans-serif" font-size="86" font-weight="900" fill="#ed2224" stroke="#f7df38" stroke-width="8">SPLAT!</text>
    </g>
    <g transform="translate(580 176)">
      <path d="M142 164h248c54 0 110 25 144 68l104 132H185L58 262c-33-27-12-98 84-98z" fill="#f4f7fb" stroke="#1a425e" stroke-width="11"/>
      <rect x="212" y="200" width="200" height="84" rx="8" fill="#87d6e9" stroke="#1a425e" stroke-width="8"/>
      <path d="M64 298 0 404h180l156-106zM428 296l242 114h112L548 273zM390 388l-16 132h92l72-132z" fill="#123a55"/>
      <circle cx="230" cy="397" r="34" fill="#202831"/><circle cx="504" cy="397" r="34" fill="#202831"/>
      <path d="M620 172h172M704 112v126" class="ink" fill="none"/>
    </g>
    <circle class="label" cx="80" cy="88" r="56"/><text class="letter" x="55" y="114">A</text>
  </g>

  <g transform="translate(1220 32)" filter="url(#shadow)">
    <rect class="paper" x="0" y="0" width="1495" height="760" rx="16"/>
    <rect x="18" y="18" width="1459" height="724" rx="12" fill="url(#runway)"/>
    <path d="M20 230c405-180 770-238 1456-110v250H20z" fill="#32433c"/>
    <path d="M22 214c360 88 912 61 1454-28" fill="none" stroke="#8e6b42" stroke-width="70" opacity=".42"/>
    <g transform="translate(118 238)">
      <path d="M74 186h1030c110 0 196 62 246 153l42 76H186c-100 0-178-92-112-229z" fill="#f5f5f1" stroke="#323b43" stroke-width="13"/>
      <path d="M1004 186 1180 32h142l-55 210z" fill="#263c58"/>
      <path d="M1145 72l116 125" stroke="#d8272f" stroke-width="40"/>
      <path d="M242 404 96 595h270l310-191zM716 408l308 198h222L908 386z" fill="#d9dde1" stroke="#333b43" stroke-width="11"/>
      <circle cx="358" cy="426" r="46" fill="#1e252b"/><circle cx="1220" cy="426" r="40" fill="#1e252b"/>
      <g fill="#82bad7"><rect x="338" y="254" width="42" height="30" rx="5"/><rect x="418" y="254" width="42" height="30" rx="5"/><rect x="498" y="254" width="42" height="30" rx="5"/><rect x="578" y="254" width="42" height="30" rx="5"/><rect x="658" y="254" width="42" height="30" rx="5"/><rect x="738" y="254" width="42" height="30" rx="5"/><rect x="818" y="254" width="42" height="30" rx="5"/><rect x="898" y="254" width="42" height="30" rx="5"/></g>
    </g>
    <circle class="label" cx="98" cy="90" r="56"/><text class="letter" x="73" y="116">B</text>
  </g>

  <g transform="translate(2788 48)" filter="url(#shadow)">
    <rect class="paper" x="0" y="0" width="1254" height="760" rx="18"/>
    <rect x="18" y="18" width="1218" height="724" rx="12" fill="url(#sky)"/>
    <path d="M20 458c210-220 370-264 548-98 188-226 398-304 668-58v440H20z" fill="url(#mount)"/>
    <rect x="285" y="55" width="690" height="645" rx="12" fill="#f6f8fb" stroke="#d8dde4" stroke-width="9"/>
    <rect x="285" y="55" width="690" height="92" fill="#e6471c"/><rect x="285" y="55" width="185" height="92" fill="#185a98"/><rect x="790" y="55" width="185" height="92" fill="#185a98"/>
    <text class="small" x="320" y="112">HOME</text><text class="small" x="503" y="112">BOOK A TRIP</text><text class="small" x="814" y="112">FLIGHT STATUS</text>
    <g transform="translate(350 185)" fill="#fff" stroke="#ccd4dd" stroke-width="6">
      <rect x="0" y="0" width="130" height="78"/><rect x="155" y="0" width="130" height="78"/><rect x="310" y="0" width="130" height="78"/>
      <rect x="0" y="132" width="250" height="70"/><rect x="284" y="132" width="250" height="70"/>
      <rect x="0" y="236" width="250" height="70"/><rect x="284" y="236" width="250" height="70"/>
      <rect x="118" y="392" width="340" height="70" fill="#145895"/>
    </g>
    <text class="caption" x="420" y="620" fill="#fff">BOOK FLIGHTS</text>
    <circle class="label" cx="82" cy="82" r="56"/><text class="letter" x="57" y="108">C</text>
  </g>

  <g transform="translate(28 772)" filter="url(#shadow)">
    <rect class="paper" x="0" y="0" width="1454" height="916" rx="18"/>
    <rect x="18" y="18" width="1418" height="880" rx="12" fill="url(#pub)"/>
    <rect x="48" y="42" width="430" height="820" fill="#a6c2bf" opacity=".38"/>
    <g transform="translate(158 224)">
      <circle cx="126" cy="108" r="76" fill="#6b4635"/><rect x="72" y="178" width="168" height="310" rx="78" fill="#7fa07a"/>
      <circle cx="520" cy="82" r="72" fill="#f3c8a8"/><rect x="446" y="150" width="175" height="318" rx="82" fill="#e7f1f5"/><rect x="486" y="126" width="86" height="22" fill="#1f2933"/>
      <circle cx="800" cy="120" r="70" fill="#efc4a5"/><rect x="724" y="188" width="190" height="306" rx="78" fill="#8fc0be"/>
      <circle cx="1110" cy="112" r="75" fill="#8b5d45"/><rect x="1032" y="184" width="186" height="302" rx="78" fill="#2f3948"/>
      <g fill="#f7c65e"><path d="M250 294h120l-28 112H278z"/><path d="M654 262h124l-24 110h-70z"/><path d="M930 300h116l-20 100H966z"/></g>
      <path d="M296 274c248 120 540 118 770 12" fill="none" stroke="#ffe5b4" stroke-width="18" stroke-linecap="round"/>
    </g>
    <circle class="label" cx="86" cy="820" r="56"/><text class="letter" x="60" y="846">D</text>
  </g>

  <g transform="translate(1450 720)" filter="url(#shadow)">
    <g transform="translate(0 190)">
      <rect x="0" y="260" width="220" height="520" rx="24" fill="#2490c8"/><circle cx="46" cy="766" r="24" fill="#1b2936"/><circle cx="174" cy="766" r="24" fill="#1b2936"/>
      <rect x="184" y="118" width="250" height="662" rx="30" fill="#f2c841"/><circle cx="232" cy="766" r="24" fill="#1b2936"/><circle cx="386" cy="766" r="24" fill="#1b2936"/>
      <rect x="392" y="0" width="468" height="650" rx="42" fill="#e69d4a" transform="rotate(-12 626 325)"/>
      <rect x="692" y="70" width="330" height="710" rx="34" fill="#2b6f78" transform="rotate(-18 857 425)"/><circle cx="808" cy="764" r="24" fill="#1b2936"/>
      <rect x="848" y="235" width="230" height="545" rx="25" fill="#38445c"/><circle cx="900" cy="766" r="24" fill="#1b2936"/><circle cx="1032" cy="766" r="24" fill="#1b2936"/>
      <rect x="1034" y="105" width="315" height="675" rx="32" fill="#e52f44"/><circle cx="1092" cy="766" r="24" fill="#1b2936"/><circle cx="1286" cy="766" r="24" fill="#1b2936"/>
      <g stroke="#fff" stroke-width="8" opacity=".35"><path d="M50 300v430"/><path d="M256 170v560"/><path d="M1130 158v540"/><path d="M936 292v388"/></g>
    </g>
    <circle class="label" cx="220" cy="602" r="56"/><text class="letter" x="195" y="628">E</text>
  </g>

  <g transform="translate(2530 835)" filter="url(#shadow)">
    <rect class="paper" x="0" y="0" width="1512" height="828" rx="18"/>
    <rect x="18" y="18" width="1476" height="792" rx="12" fill="#b8d4f1"/>
    <path d="M24 430c240-152 442-130 610-26 200-142 526-200 856 20v388H24z" fill="#5f7e68"/>
    <rect x="580" y="342" width="596" height="330" fill="#b94738"/><path d="M520 342 878 178l364 164z" fill="#347b70"/><rect x="720" y="444" width="130" height="128" fill="#e8f4ff"/><rect x="922" y="438" width="126" height="138" fill="#e8f4ff"/><rect x="840" y="568" width="148" height="104" fill="#4c342c"/>
    <path d="M24 646c210-90 398-70 556 12 248-100 530-108 914 20v134H24z" fill="#344b3b"/>
    <circle class="label" cx="1410" cy="722" r="56"/><text class="letter" x="1385" y="748">F</text>
  </g>
</svg>
