<svg xmlns="http://www.w3.org/2000/svg" width="1835" height="1080" viewBox="0 0 1835 1080" role="img" aria-label="Pronunciation table for can and can't">
  <defs>
    <style>
      .head{font:700 64px Arial,Helvetica,sans-serif;fill:#242424}
      .word{font:700 58px Arial,Helvetica,sans-serif;fill:#454545}
      .sent{font:700 62px Arial,Helvetica,sans-serif;fill:#2c2c2c}
      .pink{fill:#d64c97}.line{stroke:#8f8f8f;stroke-width:6}.thin{stroke:#b9b9b9;stroke-width:4}
    </style>
  </defs>
  <rect width="1835" height="1080" fill="#fff"/>
  <circle cx="54" cy="64" r="38" fill="#1aa7bb"/><text x="37" y="86" font-family="Arial" font-size="58" font-weight="900" fill="#fff">i</text>
  <text x="102" y="88" font-family="Arial" font-size="72" fill="#23aabd">8.7</text>
  <text x="250" y="88" class="head">Listen and repeat the sounds and</text>
  <text x="0" y="178" class="head">sentences. <tspan text-decoration="underline">Copy</tspan> the <tspan text-decoration="underline">rhythm</tspan>.</text>
  <line x1="0" y1="285" x2="1835" y2="285" class="line"/>
  <line x1="682" y1="285" x2="682" y2="1080" class="line"/>
  <line x1="0" y1="570" x2="1835" y2="570" class="thin"/>
  <line x1="0" y1="855" x2="1835" y2="855" class="thin"/>
  <g transform="translate(62 330)">
    <rect width="210" height="174" fill="#fde9f5"/>
    <rect x="42" y="30" width="126" height="78" rx="8" fill="#fff" stroke="#555" stroke-width="7"/>
    <rect x="56" y="44" width="98" height="50" rx="3" fill="#dff5fb"/>
    <rect x="172" y="32" width="24" height="92" rx="6" fill="#e94a9c" stroke="#555" stroke-width="6"/>
    <circle cx="184" cy="110" r="5" fill="#fff"/>
    <path d="M96 111v22M76 137h58" stroke="#555" stroke-width="7" stroke-linecap="round"/>
    <rect x="52" y="145" width="100" height="14" rx="5" fill="#555"/>
  </g>
  <text x="315" y="445" class="word">com<tspan class="pink">pu</tspan>ter</text>
  <text x="730" y="408" class="sent">Where <tspan class="pink">can</tspan> I park?</text>
  <text x="730" y="490" class="sent">You <tspan class="pink">can</tspan> park here.</text>
  <g transform="translate(62 615)">
    <rect width="210" height="174" fill="#fde9f5"/>
    <path d="M60 78 72 32l34 30 34-30 12 46" fill="#fff" stroke="#555" stroke-width="7" stroke-linejoin="round"/>
    <circle cx="106" cy="92" r="52" fill="#fff" stroke="#555" stroke-width="7"/>
    <path d="M76 70 90 54M136 70l-14-16" stroke="#e94a9c" stroke-width="8" stroke-linecap="round"/>
    <circle cx="88" cy="88" r="7" fill="#555"/>
    <circle cx="124" cy="88" r="7" fill="#555"/>
    <path d="M106 101l-8 10h16z" fill="#e94a9c"/>
    <path d="M73 108H42M76 121H46M139 108h31M136 121h28M98 116q8 10 16 0" stroke="#555" stroke-width="5" fill="none" stroke-linecap="round"/>
  </g>
  <text x="315" y="730" class="word"><tspan class="pink">ca</tspan>t</text>
  <text x="730" y="693" class="sent">Can I <tspan font-weight="950">park</tspan> here?</text>
  <text x="730" y="775" class="sent">Yes, you <tspan class="pink">can</tspan>.</text>
  <g transform="translate(62 900)">
    <rect width="210" height="174" fill="#fde9f5"/>
    <path d="M46 104 64 68q8-16 28-16h34q20 0 30 16l20 36" fill="#e94a9c" stroke="#555" stroke-width="7" stroke-linejoin="round"/>
    <rect x="35" y="92" width="150" height="48" rx="13" fill="#fff" stroke="#555" stroke-width="7"/>
    <path d="M75 64h62l18 30H58z" fill="#dff5fb" stroke="#555" stroke-width="6" stroke-linejoin="round"/>
    <line x1="107" y1="64" x2="107" y2="94" stroke="#555" stroke-width="5"/>
    <circle cx="70" cy="142" r="18" fill="#555"/>
    <circle cx="150" cy="142" r="18" fill="#555"/>
    <circle cx="70" cy="142" r="8" fill="#fff"/>
    <circle cx="150" cy="142" r="8" fill="#fff"/>
  </g>
  <text x="315" y="1015" class="word"><tspan class="pink">car</tspan></text>
  <text x="730" y="978" class="sent">No, you <tspan class="pink">can't</tspan>.</text>
  <text x="730" y="1060" class="sent">You <tspan class="pink">can't</tspan> park here.</text>
</svg>
