<svg xmlns="http://www.w3.org/2000/svg" width="1860" height="1635" viewBox="0 0 1860 1635" role="img" aria-label="Ten public information signs">
  <defs>
    <style>.n{font:900 74px Arial;fill:#263b42}.sym{stroke:#111;stroke-width:18;stroke-linecap:round;stroke-linejoin:round;fill:none}.label{font:900 118px Arial;fill:#fff}.blue{fill:#1458a8}.red{stroke:#e31f2f;stroke-width:48}.cell{fill:#f7fbfb;stroke:#fff;stroke-width:16}</style>
  </defs>
  <rect width="1860" height="1635" fill="#fff"/>
  <g id="badge"><circle r="58" fill="#dff4fb" stroke="#c2dce6" stroke-width="6"/></g>
  <g transform="translate(0 0)"><rect class="cell" width="620" height="490"/><use href="#badge" x="78" y="78"/><text x="57" y="104" class="n">1</text><circle cx="310" cy="230" r="150" fill="#f8fbfb" stroke="#e31f2f" stroke-width="48"/><path class="sym" d="M174 270q65-40 136 0t136 0M174 330q65-40 136 0t136 0M250 190l-62 76M252 190h88l60 70"/><line x1="194" y1="96" x2="426" y2="364" class="red"/></g>
  <g transform="translate(620 0)"><rect class="cell" width="620" height="490"/><use href="#badge" x="78" y="78"/><text x="57" y="104" class="n">2</text><rect x="96" y="84" width="428" height="276" rx="34" fill="#fff" stroke="#1d4d98" stroke-width="24"/><text x="154" y="240" font-family="Arial" font-size="132" font-weight="900" fill="#1d4d98">VISA</text><rect x="150" y="288" width="316" height="70" rx="12" class="blue"/><text x="206" y="340" font-family="Arial" font-size="48" font-weight="900" fill="#fff">CARD</text></g>
  <g transform="translate(1240 0)"><rect class="cell" width="620" height="490"/><use href="#badge" x="78" y="78"/><text x="57" y="104" class="n">3</text><circle cx="310" cy="230" r="150" fill="#f8fbfb" stroke="#e31f2f" stroke-width="48"/><rect x="258" y="104" width="104" height="232" rx="16" fill="#111"/><g fill="#fff"><rect x="280" y="138" width="60" height="40"/><circle cx="290" cy="218" r="10"/><circle cx="330" cy="218" r="10"/><circle cx="290" cy="258" r="10"/><circle cx="330" cy="258" r="10"/></g><line x1="194" y1="96" x2="426" y2="364" class="red"/></g>
  <g transform="translate(0 490)"><rect class="cell" width="620" height="490"/><use href="#badge" x="78" y="78"/><text x="57" y="104" class="n">4</text><rect x="90" y="76" width="440" height="290" rx="28" class="blue"/><text x="286" y="244" class="label">P</text><path d="M180 282l100-100v72h118v62H280v72z" fill="#fff"/></g>
  <g transform="translate(620 490)"><rect class="cell" width="620" height="490"/><use href="#badge" x="78" y="78"/><text x="57" y="104" class="n">5</text><circle cx="310" cy="235" r="165" fill="#9d2730"/><path d="M190 250q120-90 240 0" fill="none" stroke="#f1c15c" stroke-width="22"/><path d="M190 250h240v18q0 60-60 60H250q-60 0-60-60z" fill="#d9e7ef" stroke="#20323c" stroke-width="12"/><path d="M430 250q70 0 68 58-2 58-74 52" fill="none" stroke="#d9e7ef" stroke-width="20"/><ellipse cx="310" cy="386" rx="190" ry="24" fill="#283742"/></g>
  <g transform="translate(1240 490)"><rect class="cell" width="620" height="490"/><use href="#badge" x="78" y="78"/><text x="57" y="104" class="n">6</text><rect x="84" y="92" width="452" height="300" rx="40" fill="#f4c016"/><text x="156" y="282" font-family="Arial" font-size="124" font-weight="900" fill="#fff">WiFi</text><path d="M360 230q60-56 120 0M394 270q26-24 52 0" stroke="#fff" stroke-width="22" fill="none" stroke-linecap="round"/></g>
  <g transform="translate(0 980)"><rect class="cell" width="620" height="490"/><use href="#badge" x="78" y="78"/><text x="57" y="104" class="n">7</text><circle cx="310" cy="230" r="150" fill="#f8fbfb" stroke="#e31f2f" stroke-width="48"/><rect x="212" y="176" width="196" height="126" rx="22" fill="#111"/><circle cx="310" cy="238" r="42" fill="#fff"/><circle cx="310" cy="238" r="22" fill="#111"/><path d="M244 156l28-42h76l28 42z" fill="#111"/><line x1="194" y1="96" x2="426" y2="364" class="red"/></g>
  <g transform="translate(620 980)"><rect class="cell" width="620" height="490"/><use href="#badge" x="78" y="78"/><text x="57" y="104" class="n">8</text><circle cx="310" cy="230" r="150" fill="#f8fbfb" stroke="#e31f2f" stroke-width="48"/><circle cx="248" cy="166" r="36" fill="#111"/><path d="M250 210l74 68 76-42M310 278l-80 82M330 286l78 78" class="sym"/><circle cx="418" cy="200" r="26" fill="#111"/><line x1="194" y1="96" x2="426" y2="364" class="red"/></g>
  <g transform="translate(1240 980)"><rect class="cell" width="620" height="490"/><use href="#badge" x="78" y="78"/><text x="57" y="104" class="n">9</text><rect x="94" y="72" width="432" height="320" rx="36" fill="#0782c6"/><text x="162" y="192" font-family="Arial" font-size="100" font-weight="900" fill="#fff">US ¥</text><text x="180" y="320" font-family="Arial" font-size="100" font-weight="900" fill="#fff">€ £</text></g>
  <g transform="translate(620 1470)"><rect class="cell" width="620" height="165"/><use href="#badge" x="78" y="78"/><text x="38" y="104" class="n">10</text><circle cx="310" cy="82" r="66" fill="#f8fbfb" stroke="#e31f2f" stroke-width="22"/><text x="244" y="123" font-family="Arial" font-size="116" font-weight="900" fill="#111">20</text></g>
</svg>
